<svg width="13" height="13" viewBox="0 0 13 13" fill="none" xmlns="http://www.w3.org/2000/svg">
<path d="M12.1236 0.885497C11.7755 0.537374 11.2131 0.537374 10.865 0.885497L6.50009 5.2415L2.13517 0.876571C1.78705 0.528448 1.22469 0.528448 0.876571 0.876571C0.528448 1.22469 0.528448 1.78705 0.876571 2.13517L5.2415 6.50009L0.876571 10.865C0.528448 11.2131 0.528448 11.7755 0.876571 12.1236C1.22469 12.4717 1.78705 12.4717 2.13517 12.1236L6.50009 7.75869L10.865 12.1236C11.2131 12.4717 11.7755 12.4717 12.1236 12.1236C12.4717 11.7755 12.4717 11.2131 12.1236 10.865L7.75869 6.50009L12.1236 2.13517C12.4628 1.79597 12.4628 1.22469 12.1236 0.885497Z" fill="white"/>
</svg>
